<svg xmlns="http://www.w3.org/2000/svg" xmlns:xlink="http://www.w3.org/1999/xlink" width="181.208" height="166.431" viewBox="0 0 181.208 166.431"><image overflow="visible" width="3200" height="1080" xlink:href="5F4FF2AF.jpg" transform="translate(-2322.073 605.605)"/><path fill="#FFF100" d="M180.815 58.089c0 5.894-4.754 10.673-10.625 10.673H11.291c-5.86 0-10.616-4.779-10.616-10.673V10.708C.675 4.813 5.431.032 11.291.032H170.19c5.871 0 10.625 4.782 10.625 10.676v47.381z"/><path fill="#231916" d="M41.391 51.887c.089-.093.177-.185.271-.274a6.679 6.679 0 0 1 4.674-1.844c1.741.021 3.363.703 4.562 1.934a6.407 6.407 0 0 1 1.13 1.594l-.148-.025c.484.844.761 1.81.761 2.826 0 .36-.042.705-.102 1.042l24.531 4.617L61.862 41.25a6.806 6.806 0 0 1-2.947.677 6.823 6.823 0 0 1-2.158-.357 6.07 6.07 0 0 1-4.232-3.124 6.086 6.086 0 0 1-.456-4.669c.128-.434.309-.841.521-1.224l.114.287a6.682 6.682 0 0 1 2.8-3.192l-9.367-24.13-9.091 24.325a6.677 6.677 0 0 1 2.58 2.933l.02-.051c.185.343.334.708.447 1.087a6.093 6.093 0 0 1-.458 4.672 6.08 6.08 0 0 1-2.679 2.594 6.766 6.766 0 0 1-3.463.957 6.708 6.708 0 0 1-2.848-.632L15.21 61.757l24.449-4.566a5.795 5.795 0 0 1-.108-1.093c0-1.637.702-3.12 1.84-4.211m-17.696 4.502L33.863 42.9a7.284 7.284 0 0 0 2.491-.303 7.25 7.25 0 0 0 4.332-3.554 7.28 7.28 0 0 0 .55-5.578 7.415 7.415 0 0 0-1.067-2.152l5.858-15.765 6.04 15.637a7.29 7.29 0 0 0-.595 7.823 7.287 7.287 0 0 0 4.334 3.557 7.365 7.365 0 0 0 2.585.298l9.97 13.525-14.839-2.808a7.434 7.434 0 0 0-1.702-2.756c-1.43-1.469-3.364-2.287-5.45-2.308a7.969 7.969 0 0 0-5.582 2.198 7.873 7.873 0 0 0-1.899 2.82l-15.194 2.855zM132.989 42.474l-1.299-3.42s-.494-1.479-1.201-1.903c-.73-.434-2.746-.281-2.746-.281h-4.076v8.776h3.816v-3.977h2.018v10.5h-2.018v-4.233h-3.816v8.875h4.654v1.866h-12.592v-1.866h4.145V36.869h-4.178v-2.007H130s2.094-.244 2.988.651c.893.893 2.682 6.96 2.682 6.96h-2.681zM100.428 58.923c-1.568 0-2.814.048-4.924-1.65v1.784h-2.17v-9.103h2.17v4.271c1.668 1.581 2.254 2.294 4.398 2.294 3.539 0 5.102-1.588 5.102-4.156 0-.829-1.018-1.968-1.492-2.484-2.248-2.178-3.381-1.293-6.959-2.488-.654-.218-4.178-1.192-4.178-6.164 0-3.318 2.293-6.462 7.158-6.462 1.77 0 4.375.929 5.699 2.036v-1.879h1.842v8.401h-1.842v-2.99c-1.227-1.383-1.523-3.016-5.193-3.016-3.064 0-4.188 1.68-4.188 4.208 0 1.896 1.061 2.571 2.488 3.281 2.35 1.187 4.908.966 7.256 2.193 1.396.747 2.887 3.094 2.887 5.266.001 5.268-4.245 6.658-8.054 6.658M140.293 35.958h6.264l5.668 15.213 6.164-15.202h3.973v1.062l-1.209-.057s-.779.076-.779.879v17.89s.102.597.6.597h1.398v1.689h-5.873V56.33h1.494s.592-.088.592-.885V41.824l-5.764 14.613s-.199.997-1.391.997-1.295-1.393-1.295-1.393l-4.275-11.729v11.333s-.201.695.5.695h1.289v1.689h-7.32V56.33h1.359s.697.01.697-.885V37.05h-2.094l.002-1.092z"/><path fill="none" d="M0 0h181.208v68.858H0z"/><g><path fill="red" d="M23.086 78.66l.234 9.841h-.896c-.396-2.307-1.384-4.25-2.965-5.833-1.583-1.585-3.408-2.378-5.475-2.378a5.875 5.875 0 0 0-3.308.999c-1.003.666-1.505 1.641-1.505 2.925 0 1.057.457 2.006 1.368 2.845.913.842 2.859 1.999 5.84 3.474 3.656 1.791 6.03 3.455 7.122 4.994 1.095 1.537 1.643 3.195 1.643 4.973 0 2.617-.999 4.775-2.994 6.479-1.993 1.703-4.395 2.555-7.208 2.555-1.658 0-3.57-.451-5.737-1.352-.681-.285-1.257-.428-1.728-.428-.959 0-1.696.59-2.213 1.768h-.802V98.373h.804c.585 2.838 1.733 5.154 3.444 6.951 1.714 1.795 3.759 2.691 6.136 2.691a6.27 6.27 0 0 0 3.672-1.15c1.098-.768 1.647-1.855 1.647-3.262 0-1.156-.443-2.182-1.328-3.074-.882-.896-2.521-1.934-4.915-3.107-3.408-1.682-5.832-3.268-7.277-4.764-1.446-1.496-2.166-3.332-2.166-5.507 0-2.418.875-4.437 2.628-6.056 1.752-1.622 3.914-2.435 6.483-2.435 1.273 0 2.734.34 4.385 1.021 1.65.673 2.632 1.009 2.948 1.009.715 0 1.215-.676 1.5-2.03h.663z"/><path fill="none" d="M23.086 78.66l.234 9.841h-.896c-.396-2.307-1.384-4.25-2.965-5.833-1.583-1.585-3.408-2.378-5.475-2.378a5.875 5.875 0 0 0-3.308.999c-1.003.666-1.505 1.641-1.505 2.925 0 1.057.457 2.006 1.368 2.845.913.842 2.859 1.999 5.84 3.474 3.656 1.791 6.03 3.455 7.122 4.994 1.095 1.537 1.643 3.195 1.643 4.973 0 2.617-.999 4.775-2.994 6.479-1.993 1.703-4.395 2.555-7.208 2.555-1.658 0-3.57-.451-5.737-1.352-.681-.285-1.257-.428-1.728-.428-.959 0-1.696.59-2.213 1.768h-.802V98.373h.804c.585 2.838 1.733 5.154 3.444 6.951 1.714 1.795 3.759 2.691 6.136 2.691a6.27 6.27 0 0 0 3.672-1.15c1.098-.768 1.647-1.855 1.647-3.262 0-1.156-.443-2.182-1.328-3.074-.882-.896-2.521-1.934-4.915-3.107-3.408-1.682-5.832-3.268-7.277-4.764-1.446-1.496-2.166-3.332-2.166-5.507 0-2.418.875-4.437 2.628-6.056 1.752-1.622 3.914-2.435 6.483-2.435 1.273 0 2.734.34 4.385 1.021 1.65.673 2.632 1.009 2.948 1.009.715 0 1.215-.676 1.5-2.03h.663z"/><path fill="red" d="M27.703 87.629h10.948v.582h-.542c-1.076 0-1.771.19-2.081.57-.313.376-.468 1.265-.468 2.663v10.395c0 1.352.076 2.41.229 3.184.155.768.581 1.416 1.277 1.943.696.525 1.638.787 2.828.787 1.098 0 2.03-.217 2.794-.656.768-.439 1.386-1.125 1.854-2.053.468-.928.702-2.578.702-4.949v-8.65c0-1.113-.182-1.93-.547-2.453-.365-.52-1.195-.78-2.486-.78v-.582h7.333v.582h-.439c-.682 0-1.276.181-1.785.542-.51.357-.764 1.254-.764 2.691v8.057c0 1.662-.061 3-.182 4.016-.123 1.014-.479 1.988-1.072 2.924-.594.936-1.469 1.654-2.624 2.15-1.152.498-2.561.748-4.225.748-5.326 0-7.99-2.5-7.99-7.5V91.445c0-1.018-.047-1.711-.142-2.076-.095-.367-.319-.652-.673-.854-.351-.202-.999-.303-1.945-.303v-.583z"/><path fill="none" d="M27.703 87.629h10.948v.582h-.542c-1.076 0-1.771.19-2.081.57-.313.376-.468 1.265-.468 2.663v10.395c0 1.352.076 2.41.229 3.184.155.768.581 1.416 1.277 1.943.696.525 1.638.787 2.828.787 1.098 0 2.03-.217 2.794-.656.768-.439 1.386-1.125 1.854-2.053.468-.928.702-2.578.702-4.949v-8.65c0-1.113-.182-1.93-.547-2.453-.365-.52-1.195-.78-2.486-.78v-.582h7.333v.582h-.439c-.682 0-1.276.181-1.785.542-.51.357-.764 1.254-.764 2.691v8.057c0 1.662-.061 3-.182 4.016-.123 1.014-.479 1.988-1.072 2.924-.594.936-1.469 1.654-2.624 2.15-1.152.498-2.561.748-4.225.748-5.326 0-7.99-2.5-7.99-7.5V91.445c0-1.018-.047-1.711-.142-2.076-.095-.367-.319-.652-.673-.854-.351-.202-.999-.303-1.945-.303v-.583z"/><path fill="red" d="M58.015 87.629l10.463 13.155v-9.111c0-1.449-.251-2.387-.753-2.818-.501-.429-1.271-.644-2.309-.644v-.582h7.008v.582c-1.126.103-1.874.376-2.24.821-.365.441-.548 1.322-.548 2.641v17.654h-.53L54.765 91.673v13.475c0 2.076.915 3.111 2.749 3.111h.502v.584h-7.527v-.584c1.144-.006 1.952-.24 2.423-.701.471-.463.707-1.268.707-2.41V90.179l-.451-.559c-.738-.908-1.63-1.378-2.68-1.409v-.582h7.527z"/><path fill="none" d="M58.015 87.629l10.463 13.155v-9.111c0-1.449-.251-2.387-.753-2.818-.501-.429-1.271-.644-2.309-.644v-.582h7.008v.582c-1.126.103-1.874.376-2.24.821-.365.441-.548 1.322-.548 2.641v17.654h-.53L54.765 91.673v13.475c0 2.076.915 3.111 2.749 3.111h.502v.584h-7.527v-.584c1.144-.006 1.952-.24 2.423-.701.471-.463.707-1.268.707-2.41V90.179l-.451-.559c-.738-.908-1.63-1.378-2.68-1.409v-.582h7.527z"/><path fill="red" d="M96.583 81.038V93.15h.855c3.8 0 5.938-2.109 6.415-6.33h.753v14.82h-.753c-.454-4.584-2.592-6.877-6.415-6.877h-.855v9.033c0 1.121.042 1.93.131 2.422.087.496.389.922.907 1.277.516.359 1.237.537 2.16.537h.987v.811H85.337v-.811h.975c1.244 0 2.083-.281 2.52-.844.44-.566.662-1.695.662-3.393V84.38c0-1.175-.043-1.996-.125-2.463-.085-.468-.387-.88-.907-1.238-.521-.356-1.237-.536-2.15-.536h-.975v-.804h24.891v8.473h-.889c-.176-1.695-.663-3.068-1.46-4.123-.796-1.057-1.791-1.762-2.988-2.116-1.198-.356-3.051-.536-5.56-.536h-2.748z"/><path fill="none" d="M96.583 81.038V93.15h.855c3.8 0 5.938-2.109 6.415-6.33h.753v14.82h-.753c-.454-4.584-2.592-6.877-6.415-6.877h-.855v9.033c0 1.121.042 1.93.131 2.422.087.496.389.922.907 1.277.516.359 1.237.537 2.16.537h.987v.811H85.337v-.811h.975c1.244 0 2.083-.281 2.52-.844.44-.566.662-1.695.662-3.393V84.38c0-1.175-.043-1.996-.125-2.463-.085-.468-.387-.88-.907-1.238-.521-.356-1.237-.536-2.15-.536h-.975v-.804h24.891v8.473h-.889c-.176-1.695-.663-3.068-1.46-4.123-.796-1.057-1.791-1.762-2.988-2.116-1.198-.356-3.051-.536-5.56-.536h-2.748z"/><path fill="red" d="M123.242 108.259v.584H112.15v-.584h.713c.932 0 1.542-.203 1.836-.615.292-.41.438-1.219.438-2.428V91.255c0-.834-.031-1.422-.09-1.762-.058-.342-.272-.64-.646-.895-.373-.258-.886-.388-1.539-.388h-.713v-.582h11.092v.582h-.696c-.951 0-1.572.208-1.864.622-.29.414-.434 1.223-.434 2.422v13.961c0 .844.025 1.436.08 1.773.057.334.273.631.649.889.379.256.902.381 1.568.381h.698z"/><path fill="none" d="M123.242 108.259v.584H112.15v-.584h.713c.932 0 1.542-.203 1.836-.615.292-.41.438-1.219.438-2.428V91.255c0-.834-.031-1.422-.09-1.762-.058-.342-.272-.64-.646-.895-.373-.258-.886-.388-1.539-.388h-.713v-.582h11.092v.582h-.696c-.951 0-1.572.208-1.864.622-.29.414-.434 1.223-.434 2.422v13.961c0 .844.025 1.436.08 1.773.057.334.273.631.649.889.379.256.902.381 1.568.381h.698z"/><path fill="red" d="M132.505 88.771v9.289h.891c1.927 0 3.337-.344 4.23-1.027.893-.684 1.34-1.857 1.34-3.523 0-3.16-1.597-4.738-4.79-4.738h-1.671zm0 10.4v5.947c0 .936.042 1.578.126 1.928.083.346.308.635.673.867.368.232 1.081.346 2.139.346v.584H124.59v-.584c.71 0 1.29-.07 1.734-.215.447-.148.76-.365.936-.65.178-.287.268-1.045.268-2.275V91.353c0-.914-.04-1.551-.12-1.904-.076-.356-.3-.651-.667-.884-.369-.235-1.087-.354-2.15-.354v-.582h9.86c4.22 0 6.885.587 8 1.757 1.113 1.168 1.671 2.535 1.671 4.1 0 2.771-1.573 4.549-4.716 5.332l5.104 7.18c.623.877 1.108 1.467 1.459 1.768.354.301.835.465 1.443.494v.584h-6.684l-6.825-9.672h-1.398z"/><path fill="none" d="M132.505 88.771v9.289h.891c1.927 0 3.337-.344 4.23-1.027.893-.684 1.34-1.857 1.34-3.523 0-3.16-1.597-4.738-4.79-4.738h-1.671zm0 10.4v5.947c0 .936.042 1.578.126 1.928.083.346.308.635.673.867.368.232 1.081.346 2.139.346v.584H124.59v-.584c.71 0 1.29-.07 1.734-.215.447-.148.76-.365.936-.65.178-.287.268-1.045.268-2.275V91.353c0-.914-.04-1.551-.12-1.904-.076-.356-.3-.651-.667-.884-.369-.235-1.087-.354-2.15-.354v-.582h9.86c4.22 0 6.885.587 8 1.757 1.113 1.168 1.671 2.535 1.671 4.1 0 2.771-1.573 4.549-4.716 5.332l5.104 7.18c.623.877 1.108 1.467 1.459 1.768.354.301.835.465 1.443.494v.584h-6.684l-6.825-9.672h-1.398z"/><path fill="red" d="M162.346 101.611l5.759-13.981h8.64v.582h-.69c-.521 0-.956.083-1.305.245-.348.16-.6.387-.759.679-.157.294-.234.993-.234 2.099v13.982c0 .869.028 1.461.086 1.773.06.313.273.602.638.871.368.268.894.398 1.574.398h.69v.584h-11.08v-.584h.685c.954 0 1.575-.205 1.865-.621.287-.412.434-1.221.434-2.422V89.489l-8.126 19.354h-.382l-8.258-19.213v14.947c0 .996.037 1.701.113 2.115.08.414.374.779.885 1.094.509.316 1.21.473 2.104.473v.584h-7.265v-.584h.229c.765 0 1.352-.146 1.762-.443.411-.297.676-.643.799-1.037.125-.396.188-1.107.188-2.133V91.234c0-.846-.028-1.432-.085-1.762-.055-.334-.271-.628-.65-.879-.38-.254-.9-.382-1.562-.382h-.68v-.582h8.662l5.963 13.982z"/><path fill="none" d="M162.346 101.611l5.759-13.981h8.64v.582h-.69c-.521 0-.956.083-1.305.245-.348.16-.6.387-.759.679-.157.294-.234.993-.234 2.099v13.982c0 .869.028 1.461.086 1.773.06.313.273.602.638.871.368.268.894.398 1.574.398h.69v.584h-11.08v-.584h.685c.954 0 1.575-.205 1.865-.621.287-.412.434-1.221.434-2.422V89.489l-8.126 19.354h-.382l-8.258-19.213v14.947c0 .996.037 1.701.113 2.115.08.414.374.779.885 1.094.509.316 1.21.473 2.104.473v.584h-7.265v-.584h.229c.765 0 1.352-.146 1.762-.443.411-.297.676-.643.799-1.037.125-.396.188-1.107.188-2.133V91.234c0-.846-.028-1.432-.085-1.762-.055-.334-.271-.628-.65-.879-.38-.254-.9-.382-1.562-.382h-.68v-.582h8.662l5.963 13.982z"/></g><g fill="#FF3D3D"><path d="M42.278 164.714H2.992v-4.096h39.286v4.096zm-1.894-33.009H5.172v-4.141h35.212v4.141zm-2.114 15.877H7.066v-4.096H38.27v4.096zM63.749 133.818l-2.62 2.842c-1.645-1.998-3.193-3.678-4.646-5.043a40.997 40.997 0 0 1-3.876 5.328h7.949v3.656h-2.752v3.369h5.637v3.566h-5.637v12.09a191.963 191.963 0 0 0 5.637-1.541v3.611c-5.138 1.586-10.071 2.805-14.798 3.656l-.639-3.656c2.76-.484 4.749-.859 5.968-1.123v-13.037h-5.285v-3.566h5.285v-3.369h-2.907v-1.85c-.44.439-.873.814-1.299 1.123l-2.246-3.084c2.848-2.496 5.373-6.07 7.575-10.725l3.699 1.08a4.502 4.502 0 0 1-.55 1.232c1.702 1.47 3.537 3.283 5.505 5.441zm-10.834 24.994l-3.325.814c-.133-2.848-.507-5.93-1.123-9.248l3.148-.947a69.035 69.035 0 0 1 1.3 9.381zm10.239-8.83c-.205 3.127-.639 5.813-1.299 8.059l-3.215-.857c.616-1.982 1.086-4.596 1.409-7.84l3.105.638zm24.994-8.391l-1.365 3.457c-4.918-1.219-8.625-2.584-11.12-4.096-3.729 1.791-7.282 3.039-10.659 3.744l-1.762-3.436c3.289-.572 6.269-1.445 8.941-2.621-1.292-.969-2.364-2.047-3.216-3.236-1.042.764-1.762 1.262-2.158 1.498l-2.576-2.709c2.922-1.586 5.542-4.279 7.861-8.082l3.568 1.123a10.203 10.203 0 0 1-1.233 2.092h10.878v3.457a40.765 40.765 0 0 1-6.144 5.969 43.576 43.576 0 0 0 8.985 2.84zm-1.123 19.467h-9.116v4.779h-3.92v-4.779H64.74v-3.457h9.249v-2.488h-7.443v-3.061h7.443v-2.488H65.51v-3.48h8.479v-2.885h3.92v2.885h8.522v3.48h-8.522v2.488h7.398v3.061h-7.398v2.488h9.116v3.457zm-6.584-28.275h-8.677l-.22.221c.939 1.291 2.326 2.539 4.162 3.744 1.865-1.19 3.443-2.512 4.735-3.965zM105.501 145.378l-2.335 2.203c-.704-1.586-1.276-2.73-1.717-3.436v21.889h-3.788v-19.906c-.866 3.436-1.945 6.313-3.237 8.633l-1.762-4.736c1.82-3.492 3.244-7.537 4.272-12.133h-3.832v-3.787h4.559v-7.686h3.788v7.686h2.973v3.787h-2.973v.705c1.894 2.643 3.245 4.903 4.052 6.781zm27.395 13.082c-.808 5.24-2.452 7.861-4.933 7.861-1.732 0-3.715-1.572-5.946-4.713-3.67 2.305-6.636 3.854-8.896 4.646l-2.202-3.391c4.096-1.543 7.164-3.092 9.205-4.646-.852-1.836-1.557-4.104-2.114-6.805h-6.452l-.044 1.078c2.804 1.924 4.697 3.369 5.682 4.338l-2.444 3.15c-.793-.91-2.026-2.004-3.7-3.281-.954 3.963-2.649 7.207-5.087 9.732l-3.259-2.201c3.2-3.055 4.859-7.326 4.977-12.816h-3.831v-3.699h13.477c-.632-5.184-1.05-12.281-1.255-21.295h3.743c.088 8.162.507 15.26 1.255 21.295h2.665c-.088-.426-.33-.889-.727-1.389l4.184-.857c.323.514.734 1.262 1.233 2.246h3.92v3.699h-10.504c.205 1.35.623 2.781 1.255 4.293 1.146-1.07 2.194-2.334 3.149-3.787l3.435 1.74c-1.482 2.217-3.075 4.066-4.778 5.549 1.351 1.865 2.246 2.797 2.687 2.797.822 0 1.388-1.879 1.696-5.637l3.609 2.093zm-16.517-12.552l-2.841.727c-.103-1.043-.242-1.842-.418-2.4a96.672 96.672 0 0 1-6.849.947l-.947-3.193c.925-.969 2.158-2.576 3.7-4.822-1.365.117-2.459.176-3.281.176l-.727-2.885c1.629-2.23 2.862-4.91 3.699-8.037l3.457 1.1c-1.321 3.07-2.4 5.168-3.236 6.299.631.045 1.35-.014 2.157-.176.294-.484.793-1.477 1.498-2.973l3.061 1.629c-1.879 3.582-4.029 6.725-6.452 9.426.969-.045 2.026-.17 3.171-.375-.088-.602-.286-1.232-.595-1.895l2.709-.945c1.028 3.067 1.66 5.533 1.894 7.397zm16.054-.221l-2.753.904-.44-2.533a274.47 274.47 0 0 1-7.047.902l-1.034-3.148c.91-.822 2.143-2.342 3.699-4.559a71.177 71.177 0 0 1-3.392.439l-.572-3.236c1.615-2.217 2.995-4.881 4.14-7.994l3.348 1.234c-.778 1.908-2.026 4.117-3.743 6.627.881-.059 1.658-.16 2.334-.307.733-1.234 1.307-2.262 1.718-3.084l3.192 1.232c-1.526 2.996-3.67 6.123-6.43 9.383.631-.029 1.607-.141 2.929-.332a7.84 7.84 0 0 0-.551-1.629l2.753-.881c.895 2.336 1.511 4.664 1.849 6.982zM178.215 151.876l-1.762 3.742a14.8 14.8 0 0 1-1.806-.463v10.77h-3.92v-2.158h-6.805v2.158h-3.941v-13.873h7.531c-3.083-1.996-5.293-3.957-6.628-5.881h-5.439c-1.982 2.305-4.479 4.266-7.487 5.881h8.147v13.873h-3.831v-2.158h-6.894v2.158h-3.831v-10.77a8.38 8.38 0 0 1-1.63.508l-2.025-3.348c4.8-1.645 8.771-3.691 11.913-6.145H138.62v-3.5h14.82c.587-.75 1.218-1.756 1.894-3.018l4.162.484c-.338.748-.808 1.594-1.409 2.533h9.667a15.602 15.602 0 0 0-2.532-1.498l3.193-1.895c1.306.646 2.422 1.418 3.347 2.313l-1.762 1.08h7.223v3.5H165.95c2.921 2.764 7.009 4.664 12.265 5.707zm-22.593-12.861h-14.534v-11.648h14.534v11.648zm-3.876-3.478V130.8h-6.782v4.736h6.782zm.529 24.707v-4.779h-6.894v4.779h6.894zm22.638-21.229h-15.019v-11.648h15.019v11.648zm-3.832-3.478V130.8h-7.267v4.736h7.267zm-.353 24.707v-4.779h-6.805v4.779h6.805z"/></g></svg>