<?xml version="1.0" encoding="UTF-8" standalone="no"?>
<!-- Created with Inkscape (http://www.inkscape.org/) -->

<svg
   version="1.1"
   id="svg1"
   width="161.60001"
   height="59.786667"
   viewBox="0 0 161.60001 59.786667"
   xmlns="http://www.w3.org/2000/svg"
   xmlns:svg="http://www.w3.org/2000/svg">
  <defs
     id="defs1" />
  <g
     id="g1">
    <g
       id="group-R5">
      <path
         id="path2"
         d="m 1141.01,324.281 -19.28,-75.39 H 994.148 l -9.644,-37.266 c -1.738,-6.562 2.207,-11.387 8.766,-11.387 h 155.2 l -19.3,-75.41 H 920.496 c -20.601,0 -32.437,14.902 -27.168,35.508 l 66.192,261.269 c 3.515,14.473 19.726,26.75 35.082,26.75 h 217.418 l -19.28,-74.972 h -153.86 c -7.03,0 -14.48,-6.582 -16.23,-13.145 l -9.2,-35.957 h 127.56"
         style="fill:#273648;fill-opacity:1;fill-rule:nonzero;stroke:none"
         transform="matrix(0.13333333,0,0,-0.13333333,0,59.786667)" />
      <path
         id="path3"
         d="M 912.566,373.383 H 739.402 c -7.007,0 -14.019,-6.582 -15.781,-13.145 l -38.57,-148.613 c -1.758,-6.562 2.637,-11.387 9.644,-11.387 h 82.856 c 7.437,0 14.469,5.703 16.211,12.266 l 9.218,36.387 h -61.386 l 19.297,75.39 H 900.73 L 856.453,151.566 c -3.492,-14.453 -19.297,-26.738 -34.629,-26.738 H 621.477 c -20.61,0 -32.446,15.781 -27.622,35.508 l 67.075,261.269 c 3.511,14.473 18.867,26.75 34.199,26.75 h 236.734 l -19.297,-74.972"
         style="fill:#273648;fill-opacity:1;fill-rule:nonzero;stroke:none"
         transform="matrix(0.13333333,0,0,-0.13333333,0,59.786667)" />
      <path
         id="path4"
         d="m 273.328,324.281 -19.273,-75.39 H 126.477 l -9.653,-37.266 c -1.734,-6.562 2.207,-11.387 8.774,-11.387 h 155.191 l -19.297,-75.41 H 52.8242 c -20.6054,0 -32.4414,14.902 -27.1875,35.508 l 66.211,261.269 c 3.5117,14.473 19.7223,26.75 35.0783,26.75 H 344.348 L 325.066,373.383 H 171.199 c -7.027,0 -14.469,-6.582 -16.226,-13.145 l -9.203,-35.957 h 127.558"
         style="fill:#273648;fill-opacity:1;fill-rule:nonzero;stroke:none"
         transform="matrix(0.13333333,0,0,-0.13333333,0,59.786667)" />
      <path
         id="path5"
         d="m 593.84,329.984 -44.277,97.325 c -5.278,11.836 -19.727,21.046 -32.446,21.046 H 374.188 L 342.434,324.281 h 42.656 c 14.59,32.578 47.183,55.293 85.176,55.293 37.964,0 70.586,-22.715 85.172,-55.293 h -80.895 l -19.301,-75.39 100.649,0.234 c -14.36,-33.066 -47.286,-56.211 -85.625,-56.211 -38.34,0 -71.25,23.145 -85.61,56.211 L 323.113,248.891 291.34,124.828 h 236.734 c 15.781,0 31.114,12.285 35.063,26.738 l 34.199,135.45 c 3.516,12.285 1.758,32.011 -3.496,42.968"
         style="fill:#b91134;fill-opacity:1;fill-rule:nonzero;stroke:none"
         transform="matrix(0.13333333,0,0,-0.13333333,0,59.786667)" />
      <path
         id="path6"
         d="M 19.793,78.4844 H 96.2227 L 93.7891,68.875 H 27.8906 L 21.9531,45.4375 H 85.1563 L 82.8438,36.3086 H 19.6406 L 12.9023,9.71484 H 78.9141 L 76.543,0.339844 H 0 L 19.793,78.4844"
         style="fill:#273648;fill-opacity:1;fill-rule:nonzero;stroke:none"
         transform="matrix(0.13333333,0,0,-0.13333333,0,59.786667)" />
      <path
         id="path7"
         d="M 142.383,78.4844 193.254,9.94922 h 2.461 l 17.359,68.53518 h 10.305 L 203.586,0.339844 H 186.023 L 135.215,68.6406 h -2.227 L 115.684,0.339844 H 105.039 L 124.836,78.4844 h 17.547"
         style="fill:#273648;fill-opacity:1;fill-rule:nonzero;stroke:none"
         transform="matrix(0.13333333,0,0,-0.13333333,0,59.786667)" />
      <path
         id="path8"
         d="M 336.902,39.9414 C 336.16,37.4805 335.715,35.7227 335.391,34.4336 327.141,2.33203 323.516,0 281.492,0 c -29.605,0 -38.289,1.27734 -42.051,6.31641 -3.64,4.57029 -3.101,13.59379 1.821,33.03909 4.746,18.75 9.527,29.2851 15.093,33.2695 6.75,4.9219 15.383,6.2031 41.25,6.2031 26.094,0 34.817,-1.1718 39.473,-4.9218 4.738,-3.9766 5.473,-8.8985 2.805,-19.9024 h -10.645 c 2.371,10.3008 1.477,12.7617 -5.05,13.8164 -5.516,0.8203 -15.555,1.418 -27.958,1.418 -21.882,0 -30.222,-1.0664 -34.011,-3.9961 -3.672,-2.9297 -5.969,-8.7774 -10,-24.7149 -4.192,-16.5156 -5.246,-24.3671 -3.567,-26.9453 1.868,-2.8125 7.453,-3.86716 20.149,-4.10153 L 283.75,9.36328 c 1.145,-0.10547 2.313,-0.10547 3.367,-0.10547 29.375,0 31.543,1.16019 36.321,19.08989 l 0.71,2.3359 h -40.73 l 2.344,9.2578 h 51.14"
         style="fill:#273648;fill-opacity:1;fill-rule:nonzero;stroke:none"
         transform="matrix(0.13333333,0,0,-0.13333333,0,59.786667)" />
      <path
         id="path9"
         d="M 384.648,78.4844 364.855,0.339844 H 354.563 L 374.355,78.4844 h 10.293"
         style="fill:#273648;fill-opacity:1;fill-rule:nonzero;stroke:none"
         transform="matrix(0.13333333,0,0,-0.13333333,0,59.786667)" />
      <path
         id="path10"
         d="M 432.305,78.4844 483.176,9.94922 h 2.461 l 17.359,68.53518 h 10.305 L 493.508,0.339844 H 475.945 L 425.137,68.6406 H 422.91 L 405.605,0.339844 H 394.961 L 414.758,78.4844 h 17.547"
         style="fill:#273648;fill-opacity:1;fill-rule:nonzero;stroke:none"
         transform="matrix(0.13333333,0,0,-0.13333333,0,59.786667)" />
      <path
         id="path11"
         d="m 543.328,78.4844 h 76.43 l -2.434,-9.6094 h -65.898 l -5.938,-23.4375 h 63.203 l -2.312,-9.1289 H 543.176 L 536.438,9.71484 h 66.011 L 600.078,0.339844 H 523.535 L 543.328,78.4844"
         style="fill:#273648;fill-opacity:1;fill-rule:nonzero;stroke:none"
         transform="matrix(0.13333333,0,0,-0.13333333,0,59.786667)" />
      <path
         id="path12"
         d="m 648.359,78.4844 h 76.426 l -2.43,-9.6094 H 656.453 L 650.52,45.4375 h 63.203 l -2.317,-9.1289 H 648.203 L 641.465,9.71484 H 707.48 L 705.105,0.339844 H 628.563 L 648.359,78.4844"
         style="fill:#273648;fill-opacity:1;fill-rule:nonzero;stroke:none"
         transform="matrix(0.13333333,0,0,-0.13333333,0,59.786667)" />
      <path
         id="path13"
         d="m 792.344,39.5898 c 6.433,0 9.57,-0.1171 9.687,-0.1171 17.793,0 21.282,2.2265 24.629,15.4687 3.352,13.2305 1.543,14.4024 -26.777,14.4024 H 761.73 l -7.542,-29.754 z m -38.946,38.8946 h 48.797 l 11.567,-0.1172 c 23.23,-0.2344 28.101,-5.0391 23.433,-23.4258 -3.648,-14.4141 -7.144,-18.5156 -17.976,-20.625 9.148,-1.7578 10.011,-5.2656 5.554,-22.8437 L 821.965,0.339844 H 811.66 l 1.926,7.617186 1.512,5.96877 c 3.535,13.9453 1.621,16.5234 -13.211,16.6484 L 790.09,30.6836 H 751.934 L 744.246,0.339844 H 733.605 L 753.398,78.4844"
         style="fill:#273648;fill-opacity:1;fill-rule:nonzero;stroke:none"
         transform="matrix(0.13333333,0,0,-0.13333333,0,59.786667)" />
      <path
         id="path14"
         d="M 881.25,78.4844 861.453,0.339844 H 851.16 L 870.957,78.4844 h 10.293"
         style="fill:#273648;fill-opacity:1;fill-rule:nonzero;stroke:none"
         transform="matrix(0.13333333,0,0,-0.13333333,0,59.786667)" />
      <path
         id="path15"
         d="M 928.906,78.4844 979.773,9.94922 h 2.461 L 999.602,78.4844 H 1009.9 L 990.105,0.339844 H 972.551 L 921.738,68.6406 h -2.226 L 902.207,0.339844 H 891.563 L 911.355,78.4844 h 17.551"
         style="fill:#273648;fill-opacity:1;fill-rule:nonzero;stroke:none"
         transform="matrix(0.13333333,0,0,-0.13333333,0,59.786667)" />
      <path
         id="path16"
         d="m 1123.44,39.9414 c -0.74,-2.4609 -1.18,-4.2187 -1.52,-5.5078 C 1113.67,2.33203 1110.05,0 1068.03,0 c -29.61,0 -38.29,1.27734 -42.05,6.31641 -3.65,4.57029 -3.12,13.59379 1.81,33.03909 4.75,18.75 9.53,29.2851 15.1,33.2695 6.75,4.9219 15.38,6.2031 41.25,6.2031 26.09,0 34.82,-1.1718 39.48,-4.9218 4.73,-3.9766 5.47,-8.8985 2.8,-19.9024 h -10.65 c 2.38,10.3008 1.48,12.7617 -5.04,13.8164 -5.52,0.8203 -15.56,1.418 -27.97,1.418 -21.88,0 -30.23,-1.0664 -34.01,-3.9961 -3.66,-2.9297 -5.97,-8.7774 -10.01,-24.7149 -4.18,-16.5156 -5.23,-24.3671 -3.55,-26.9453 1.86,-2.8125 7.45,-3.86716 20.14,-4.10153 l 14.95,-0.11719 c 1.15,-0.10547 2.32,-0.10547 3.37,-0.10547 29.38,0 31.55,1.16019 36.32,19.08989 l 0.71,2.3359 h -40.73 l 2.34,9.2578 h 51.15"
         style="fill:#273648;fill-opacity:1;fill-rule:nonzero;stroke:none"
         transform="matrix(0.13333333,0,0,-0.13333333,0,59.786667)" />
    </g>
  </g>
</svg>
